<?xml version="1.0" standalone="no"?>
<!DOCTYPE svg PUBLIC "-//W3C//DTD SVG 1.1//EN" "http://www.w3.org/Graphics/SVG/1.1/DTD/svg11.dtd" >
<svg xmlns="http://www.w3.org/2000/svg" xmlns:xlink="http://www.w3.org/1999/xlink" version="1.1">
<metadata>
Created by FontForge 20230101 at Mon Nov  3 01:48:55 2014
 By Unknown
Copyright (c) Ryoichi Tsunekawa, 2006. All rights reserved.
</metadata>
<defs>
<font id="TokyotrailW01-Regular" horiz-adv-x="680" >
  <font-face 
    font-family="TokyotrailW01-Regular"
    font-weight="400"
    font-stretch="normal"
    units-per-em="1000"
    panose-1="2 0 5 5 0 0 0 2 0 4"
    ascent="800"
    descent="-200"
    x-height="648"
    cap-height="648"
    bbox="45 -184 1183 875"
    underline-thickness="50"
    underline-position="-175"
    unicode-range="U+0020-2122"
  />
<missing-glyph horiz-adv-x="465" 
d="M45 0v875h375v-875h-375zM107 63h250v750h-250v-750z" />
    <glyph glyph-name=".notdef" horiz-adv-x="465" 
d="M45 0v875h375v-875h-375zM107 63h250v750h-250v-750z" />
    <glyph glyph-name=".null" horiz-adv-x="0" 
 />
    <glyph glyph-name="nonmarkingreturn" horiz-adv-x="333" 
 />
    <glyph glyph-name="glyph216" horiz-adv-x="90" 
 />
    <glyph glyph-name="space" unicode=" " horiz-adv-x="650" 
 />
    <glyph glyph-name="exclam" unicode="!" horiz-adv-x="160" 
d="M45 -11v70h70v-70h-70zM45 125v523h70v-523h-70z" />
    <glyph glyph-name="quotedbl" unicode="&#x22;" horiz-adv-x="281" 
d="M45 579v102h70v-102h-70zM166 579v102h70v-102h-70z" />
    <glyph glyph-name="numbersign" unicode="#" horiz-adv-x="677" 
d="M262 404l-17 -171h171l18 171h-172zM480 163l-18 -174h-71l18 174h-171l-17 -174h-71l17 174h-122v70h129l19 171h-148v72h154l16 172h71l-17 -172h171l18 172h71l-19 -172h122v-72h-128l-18 -171h146v-70h-152z" />
    <glyph glyph-name="dollar" unicode="$" horiz-adv-x="644" 
d="M529 215q0 49 -50 53l-121 9v-218h120q51 0 51 53v103zM288 576h-121q-52 0 -52 -49v-111q0 -48 51 -52l122 -9v221zM358 -9v-53h-70v53h-207v68h207v226l-132 9q-52 4 -81.5 36t-29.5 86v111q0 54 34 87.5t88 33.5h121v53h70v-53h207v-72h-207v-228l125 -10
q116 -9 116 -123v-103q0 -51 -35 -86t-86 -35h-120z" />
    <glyph glyph-name="percent" unicode="%" horiz-adv-x="764" 
d="M116 -8l442 658h84l-439 -658h-87zM287 588q0 25 -26 25h-155q-26 0 -26 -25v-207q0 -27 26 -27h155q26 0 26 27v207zM106 319q-26 0 -43.5 18t-17.5 44v207q0 26 17 43.5t44 17.5h155q26 0 43.5 -18t17.5 -43v-207q0 -26 -18 -44t-43 -18h-155zM684 263q0 25 -26 25
h-155q-26 0 -26 -25v-207q0 -27 26 -27h155q26 0 26 27v207zM503 -6q-26 0 -43.5 18t-17.5 44v207q0 26 17 43.5t44 17.5h155q26 0 43.5 -18t17.5 -43v-207q0 -26 -18 -44t-43 -18h-155z" />
    <glyph glyph-name="ampersand" unicode="&#x26;" horiz-adv-x="751" 
d="M342 354v294h69v-294h295v-70h-295v-295h-69v295h-297v70h297z" />
    <glyph glyph-name="quotesingle" unicode="'" horiz-adv-x="160" 
d="M45 579v102h70v-102h-70z" />
    <glyph glyph-name="parenleft" unicode="(" horiz-adv-x="264" 
d="M45 -181v1002h174v-73h-103v-859h103v-70h-174z" />
    <glyph glyph-name="parenright" unicode=")" horiz-adv-x="263" 
d="M45 -181v70h103v859h-103v73h173v-1002h-173z" />
    <glyph glyph-name="asterisk" unicode="*" horiz-adv-x="310" 
d="M178 654l64 34l23 -69l-72 -9l53 -51l-60 -44l-31 66l-33 -66l-58 44l51 50l-70 10l24 69l61 -34l-13 71h74z" />
    <glyph glyph-name="plus" unicode="+" horiz-adv-x="486" 
d="M277 280v-163h-70v163h-162v70h161v164h71v-164h164v-70h-164z" />
    <glyph glyph-name="comma" unicode="," horiz-adv-x="234" 
d="M45 -42l71 104h73l-71 -104h-73z" />
    <glyph glyph-name="hyphen" unicode="-" horiz-adv-x="458" 
d="M45 280v70h368v-70h-368z" />
    <glyph glyph-name="period" unicode="." horiz-adv-x="160" 
d="M45 -10v69h70v-69h-70z" />
    <glyph glyph-name="slash" unicode="/" horiz-adv-x="685" 
d="M45 -82l511 765h84l-509 -765h-86z" />
    <glyph glyph-name="zero" unicode="0" horiz-adv-x="644" 
d="M529 526q0 50 -52 50h-311q-51 0 -51 -50v-414q0 -53 51 -53h311q52 0 52 53v414zM166 -11q-52 0 -86.5 35.5t-34.5 87.5v414q0 53 34 87.5t87 34.5h311q51 0 86.5 -35.5t35.5 -86.5v-414q0 -52 -36.5 -87.5t-85.5 -35.5h-311z" />
    <glyph glyph-name="one" unicode="1" horiz-adv-x="263" 
d="M147 -11v587h-102v72h173v-659h-71z" />
    <glyph glyph-name="two" unicode="2" horiz-adv-x="677" 
d="M45 -11v226q0 52 34 84.5t87 36.5l346 28q52 4 52 51v111q0 50 -53 50h-430v72h430q53 0 87 -34t34 -88v-111q0 -111 -121 -121l-346 -28q-50 -4 -50 -51v-156h517v-70h-587z" />
    <glyph glyph-name="three" unicode="3" 
d="M45 -11v70h466q53 0 53 53v116q0 52 -53 52h-431v70h431q53 0 53 52v124q0 50 -53 50h-466v72h466q51 0 87.5 -35.5t36.5 -86.5v-124q0 -62 -57 -86q57 -25 57 -88v-116q0 -51 -37 -87t-87 -36h-466z" />
    <glyph glyph-name="four" unicode="4" 
d="M564 -11v291h-397q-51 0 -86.5 35.5t-35.5 86.5v246h70v-246q0 -52 52 -52h397v298h71v-659h-71z" />
    <glyph glyph-name="five" unicode="5" horiz-adv-x="677" 
d="M45 -11v70h466q52 0 52 53v116q0 52 -52 52h-466v368h554v-71h-483v-227h395q52 0 86.5 -35t34.5 -87v-116q0 -53 -34 -88t-87 -35h-466z" />
    <glyph glyph-name="six" unicode="6" 
d="M167 -11q-51 0 -86.5 36t-35.5 87v414q0 51 35.5 86.5t86.5 35.5h431v-72h-431q-52 0 -52 -50v-414q0 -53 52 -53h344q53 0 53 53v116q0 52 -53 52h-409v70h409q50 0 87 -36t37 -86v-116q0 -51 -37 -87t-87 -36h-344z" />
    <glyph glyph-name="seven" unicode="7" horiz-adv-x="677" 
d="M460 353v-364h-70v364q0 50 35.5 84.5t86.5 38t51 50.5q0 50 -52 50h-466v72h466q121 0 121 -122q0 -108 -98 -119q-74 -8 -74 -54z" />
    <glyph glyph-name="eight" unicode="8" horiz-adv-x="677" 
d="M563 228q0 52 -52 52h-345q-51 0 -51 -52v-116q0 -53 51 -53h345q52 0 52 53v116zM563 526q0 50 -52 50h-345q-51 0 -51 -50v-124q0 -52 51 -52h345q52 0 52 52v124zM166 -11q-52 0 -86.5 35.5t-34.5 87.5v116q0 62 52 88q-52 25 -52 86v124q0 53 34 87.5t87 34.5h345
q53 0 87 -34t34 -88v-124q0 -64 -52 -86q52 -26 52 -88v-116q0 -53 -34 -88t-87 -35h-345z" />
    <glyph glyph-name="nine" unicode="9" 
d="M80 -11v70h431q53 0 53 53v414q0 50 -53 50h-344q-52 0 -52 -50v-124q0 -52 52 -52h449v-70h-449q-52 0 -87 35t-35 87v124q0 51 34 88v-1q37 35 88 35h344q51 0 87.5 -35.5t36.5 -86.5v-414q0 -51 -37 -87t-87 -36h-431z" />
    <glyph glyph-name="colon" unicode=":" horiz-adv-x="160" 
d="M45 282v69h70v-69h-70zM45 -9v70h70v-70h-70z" />
    <glyph glyph-name="semicolon" unicode=";" horiz-adv-x="236" 
d="M121 280v70h70v-70h-70zM45 -42l71 104h73l-71 -104h-73z" />
    <glyph glyph-name="less" unicode="&#x3c;" horiz-adv-x="305" 
d="M260 131v-142h-69v123l-146 201l146 215v120h69v-142l-139 -194z" />
    <glyph glyph-name="equal" unicode="=" horiz-adv-x="486" 
d="M45 177v71h396v-71h-396zM45 382v74h396v-74h-396z" />
    <glyph glyph-name="greater" unicode="&#x3e;" horiz-adv-x="306" 
d="M185 312l-140 193v143h70v-120l146 -215l-146 -202v-122h-70v141z" />
    <glyph glyph-name="question" unicode="?" horiz-adv-x="685" 
d="M268 -11v70h70v-70h-70zM386 284q-50 -4 -50 -50v-109h-72v109q0 110 123 120l133 11q48 4 48 50v111q0 50 -49 50h-474v72h474q121 0 121 -122v-111q0 -112 -122 -121z" />
    <glyph glyph-name="at" unicode="@" horiz-adv-x="816" 
d="M81 263v70h195l211 315h181v-315h103v-70h-103v-274h-279v70h206v204h-281l-181 -274h-88l184 274h-148zM595 583h-69l-166 -250h235v250z" />
    <glyph glyph-name="A" unicode="A" horiz-adv-x="713" 
d="M487 648h181v-659h-279v70h206v524h-69l-393 -594h-88z" />
    <glyph glyph-name="B" unicode="B" horiz-adv-x="677" 
d="M117 59h392q52 0 52 53v117q0 52 -52 52h-392v-222zM561 526q0 50 -52 50h-392v-227h392q52 0 52 52v125zM45 -11v659h466q53 0 87 -34t34 -88v-124q0 -61 -52 -86q52 -26 52 -88v-116q0 -53 -34 -88t-87 -35h-466z" />
    <glyph glyph-name="C" unicode="C" horiz-adv-x="661" 
d="M166 -11q-54 0 -87.5 35t-33.5 88v414q0 53 34 87.5t87 34.5h450v-72h-450q-51 0 -51 -50v-414q0 -53 51 -53h450v-70h-450z" />
    <glyph glyph-name="D" unicode="D" 
d="M116 59h395q53 0 53 53v414q0 50 -53 50h-395v-517zM45 -11v659h466q51 0 87.5 -35.5t36.5 -86.5v-414q0 -51 -37 -87t-87 -36h-466z" />
    <glyph glyph-name="E" unicode="E" horiz-adv-x="676" 
d="M45 -11v659h586v-72h-515v-226h478v-70h-478v-221h515v-70h-586z" />
    <glyph glyph-name="F" unicode="F" horiz-adv-x="676" 
d="M116 576v-226h478v-70h-478v-291h-71v659h586v-72h-515z" />
    <glyph glyph-name="G" unicode="G" horiz-adv-x="677" 
d="M166 -11q-52 0 -86.5 35.5t-34.5 87.5v414q0 53 34 87.5t87 34.5h466v-72h-466q-51 0 -51 -50v-414q0 -53 51 -53h345q52 0 52 53v168h-173v70h242v-238q0 -53 -34 -88t-87 -35h-345z" />
    <glyph glyph-name="H" unicode="H" horiz-adv-x="677" 
d="M563 -11v291h-448v-291h-70v659h70v-297h448v297h69v-659h-69z" />
    <glyph glyph-name="I" unicode="I" horiz-adv-x="160" 
d="M45 -11v659h70v-659h-70z" />
    <glyph glyph-name="J" unicode="J" horiz-adv-x="649" 
d="M45 -11v70h436q51 0 51 53v464h-139v72h211v-536q0 -49 -37 -86t-86 -37h-436z" />
    <glyph glyph-name="K" unicode="K" horiz-adv-x="652" 
d="M115 -11h-70v659h70v-298h86l310 298h95l-346 -330l347 -329h-96l-309 296h-87v-296z" />
    <glyph glyph-name="L" unicode="L" 
d="M45 -11v659h71v-589h519v-70h-590z" />
    <glyph glyph-name="M" unicode="M" horiz-adv-x="1064" 
d="M487 648h181v-263l170 263h181v-659l-73 -1v595h-69l-209 -316v-278l-73 -1v184l-111 -183h-88l199 296v298h-69l-393 -594h-88z" />
    <glyph glyph-name="N" unicode="N" horiz-adv-x="695" 
d="M237 648l273 -594h67v594h73v-659h-195l-272 594h-68v-594h-70v659h192z" />
    <glyph glyph-name="O" unicode="O" horiz-adv-x="690" 
d="M577 526q0 50 -52 50h-360q-50 0 -50 -50v-414q0 -53 50 -53h360q52 0 52 53v414zM165 -11q-53 0 -86.5 35t-33.5 88v414q0 54 34 88t86 34h360q52 0 86 -34t34 -88v-414q0 -53 -33.5 -88t-86.5 -35h-360z" />
    <glyph glyph-name="P" unicode="P" horiz-adv-x="677" 
d="M115 350h396q53 0 53 52v124q0 50 -53 50h-396v-226zM115 280v-291h-70v659h466q54 0 87.5 -34.5t33.5 -87.5v-124q0 -53 -33.5 -87.5t-87.5 -34.5h-396z" />
    <glyph glyph-name="Q" unicode="Q" horiz-adv-x="713" 
d="M597 526q0 50 -50 50h-381q-51 0 -51 -50v-414q0 -53 51 -53h250l-68 119h77l68 -119h54q50 0 50 53v414zM593 -113h-75l-61 102h-291q-50 0 -85.5 36.5t-35.5 86.5v414q0 51 35.5 86.5t85.5 35.5h381q52 0 86.5 -35t34.5 -87v-414q0 -123 -121 -123h-13z" />
    <glyph glyph-name="R" unicode="R" horiz-adv-x="685" 
d="M116 350h403q50 0 50 52v124q0 50 -50 50h-403v-226zM116 280v-291h-71v659h474q51 0 86 -35t35 -87v-124q0 -62 -57 -86q57 -25 57 -88v-239h-71v239q0 52 -50 52h-403z" />
    <glyph glyph-name="S" unicode="S" horiz-adv-x="705" 
d="M45 -11v70h494q52 0 52 53v103q0 47 -51 51l-372 28q-123 9 -123 121v111q0 51 35 88v-1q35 35 87 35h460v-72h-460q-52 0 -52 -50v-111q0 -47 51 -51l373 -28q121 -9 121 -121v-103q0 -53 -34 -88t-87 -35h-494z" />
    <glyph glyph-name="T" unicode="T" horiz-adv-x="677" 
d="M375 576v-587h-74v587h-256v72h587v-72h-257z" />
    <glyph glyph-name="U" unicode="U" 
d="M167 -11q-52 0 -88 36v-1q-34 36 -34 88v536h70v-536q0 -53 52 -53h344q53 0 53 53v536h71v-536q0 -50 -37 -86.5t-87 -36.5h-344z" />
    <glyph glyph-name="V" unicode="V" horiz-adv-x="713" 
d="M45 648h88l393 -594h69v594h73v-659h-181z" />
    <glyph glyph-name="W" unicode="W" horiz-adv-x="1064" 
d="M45 648h88l393 -594h69v298l-199 296h88l111 -183v184l73 -1v-278l209 -316h69v595l73 -1v-659h-181l-170 264v-264h-181z" />
    <glyph glyph-name="X" unicode="X" horiz-adv-x="676" 
d="M544 -11l-205 284l-207 -284h-87l251 336l-247 323h87l203 -268l204 268h87l-249 -323l250 -336h-87z" />
    <glyph glyph-name="Y" unicode="Y" horiz-adv-x="678" 
d="M561 576h-139v72h211v-536q0 -49 -37 -86t-86 -37h-465v70h418l-399 589h88l391 -580q18 14 18 38v470z" />
    <glyph glyph-name="Z" unicode="Z" horiz-adv-x="664" 
d="M184 61h432v-72h-571l432 588h-409v71h551z" />
    <glyph glyph-name="bracketleft" unicode="[" horiz-adv-x="264" 
d="M45 -181v1002h174v-73h-103v-859h103v-70h-174z" />
    <glyph glyph-name="backslash" unicode="\" horiz-adv-x="686" 
d="M554 -82l-509 765h84l512 -765h-87z" />
    <glyph glyph-name="bracketright" unicode="]" horiz-adv-x="263" 
d="M45 -181v70h103v859h-103v73h173v-1002h-173z" />
    <glyph glyph-name="asciicircum" unicode="^" horiz-adv-x="315" 
d="M45 577l71 104h67l-65 -104h-73zM197 577l-65 104h67l71 -104h-73z" />
    <glyph glyph-name="underscore" unicode="_" horiz-adv-x="676" 
d="M631 59v-70h-586v70h586z" />
    <glyph glyph-name="grave" unicode="`" horiz-adv-x="234" 
d="M116 737l-71 104h73l71 -104h-73z" />
    <glyph glyph-name="a" unicode="a" horiz-adv-x="713" 
d="M668 -11h-88l-393 594h-69v-524h206v-70h-279v659h181z" />
    <glyph glyph-name="b" unicode="b" horiz-adv-x="677" 
d="M117 59h392q52 0 52 53v117q0 52 -52 52h-392v-222zM561 526q0 50 -52 50h-392v-227h392q52 0 52 52v125zM45 -11v659h466q53 0 87 -34t34 -88v-124q0 -61 -52 -86q52 -26 52 -88v-116q0 -53 -34 -88t-87 -35h-466z" />
    <glyph glyph-name="c" unicode="c" horiz-adv-x="661" 
d="M166 -11q-54 0 -87.5 35t-33.5 88v414q0 53 34 87.5t87 34.5h450v-72h-450q-51 0 -51 -50v-414q0 -53 51 -53h450v-70h-450z" />
    <glyph glyph-name="d" unicode="d" 
d="M116 59h395q53 0 53 53v414q0 50 -53 50h-395v-517zM45 -11v659h466q51 0 87.5 -35.5t36.5 -86.5v-414q0 -51 -37 -87t-87 -36h-466z" />
    <glyph glyph-name="e" unicode="e" horiz-adv-x="676" 
d="M45 -11v659h586v-72h-515v-226h478v-70h-478v-221h515v-70h-586z" />
    <glyph glyph-name="f" unicode="f" horiz-adv-x="676" 
d="M116 576v-226h478v-70h-478v-291h-71v659h586v-72h-515z" />
    <glyph glyph-name="g" unicode="g" horiz-adv-x="677" 
d="M166 -11q-52 0 -86.5 35.5t-34.5 87.5v414q0 53 34 87.5t87 34.5h466v-72h-466q-51 0 -51 -50v-414q0 -53 51 -53h345q52 0 52 53v238h69v-238q0 -53 -34 -88t-87 -35h-345z" />
    <glyph glyph-name="h" unicode="h" horiz-adv-x="677" 
d="M563 -11v291h-448v-291h-70v659h70v-297h448v297h69v-659h-69z" />
    <glyph glyph-name="i" unicode="i" horiz-adv-x="160" 
d="M45 -11v659h70v-659h-70z" />
    <glyph glyph-name="j" unicode="j" horiz-adv-x="302" 
d="M45 -11v70h89q50 0 50 53v464h-139v72h212v-536q0 -49 -37 -86t-86 -37h-89z" />
    <glyph glyph-name="k" unicode="k" horiz-adv-x="652" 
d="M115 -11h-70v659h70v-298h86l310 298h95l-346 -330l347 -329h-96l-309 296h-87v-296z" />
    <glyph glyph-name="l" unicode="l" horiz-adv-x="302" 
d="M45 -11v659h72v-589h140v-70h-212z" />
    <glyph glyph-name="m" unicode="m" horiz-adv-x="1064" 
d="M1019 -11h-88l-393 594h-69v-298l199 -296h-88l-111 183v-184l-73 1v278l-209 316h-69v-595l-73 1v659h181l170 -263v263h181z" />
    <glyph glyph-name="n" unicode="n" horiz-adv-x="695" 
d="M237 648l273 -594h67v594h73v-659h-195l-272 594h-68v-594h-70v659h192z" />
    <glyph glyph-name="o" unicode="o" horiz-adv-x="690" 
d="M577 526q0 50 -52 50h-360q-50 0 -50 -50v-414q0 -53 50 -53h360q52 0 52 53v414zM165 -11q-53 0 -86.5 35t-33.5 88v414q0 54 34 88t86 34h360q52 0 86 -34t34 -88v-414q0 -53 -33.5 -88t-86.5 -35h-360z" />
    <glyph glyph-name="p" unicode="p" horiz-adv-x="677" 
d="M115 350h396q53 0 53 52v124q0 50 -53 50h-396v-226zM115 280v-291h-70v659h466q54 0 87.5 -34.5t33.5 -87.5v-124q0 -53 -33.5 -87.5t-87.5 -34.5h-396z" />
    <glyph glyph-name="q" unicode="q" horiz-adv-x="713" 
d="M597 526q0 50 -50 50h-381q-51 0 -51 -50v-414q0 -53 51 -53h250l-68 119h77l68 -119h54q50 0 50 53v414zM593 -113h-75l-61 102h-291q-50 0 -85.5 36.5t-35.5 86.5v414q0 51 35.5 86.5t85.5 35.5h381q52 0 86.5 -35t34.5 -87v-414q0 -123 -121 -123h-13z" />
    <glyph glyph-name="r" unicode="r" horiz-adv-x="685" 
d="M116 350h403q50 0 50 52v124q0 50 -50 50h-403v-226zM116 280v-291h-71v659h474q51 0 86 -35t35 -87v-124q0 -62 -57 -86q57 -25 57 -88v-239h-71v239q0 52 -50 52h-403z" />
    <glyph glyph-name="s" unicode="s" horiz-adv-x="705" 
d="M45 -11v70h494q52 0 52 53v103q0 47 -51 51l-372 28q-123 9 -123 121v111q0 51 35 88v-1q35 35 87 35h460v-72h-460q-52 0 -52 -50v-111q0 -47 51 -51l373 -28q121 -9 121 -121v-103q0 -53 -34 -88t-87 -35h-494z" />
    <glyph glyph-name="t" unicode="t" horiz-adv-x="677" 
d="M375 576v-587h-74v587h-256v72h587v-72h-257z" />
    <glyph glyph-name="u" unicode="u" 
d="M167 -11q-52 0 -88 36v-1q-34 36 -34 88v536h70v-536q0 -53 52 -53h344q53 0 53 53v536h71v-536q0 -50 -37 -86.5t-87 -36.5h-344z" />
    <glyph glyph-name="v" unicode="v" horiz-adv-x="713" 
d="M226 -11h-181v659h73v-594h69l393 594h88z" />
    <glyph glyph-name="w" unicode="w" horiz-adv-x="1064" 
d="M577 -11h-181v264l-170 -264h-181v659l73 1v-595h69l209 316v278l73 1v-184l111 183h88l-199 -296v-298h69l393 594h88z" />
    <glyph glyph-name="x" unicode="x" horiz-adv-x="676" 
d="M547 -11l-208 281l-210 -281h-84l251 336l-247 323h87l203 -268l204 268h87l-249 -323l250 -336h-84z" />
    <glyph glyph-name="y" unicode="y" horiz-adv-x="764" 
d="M419 247v-258h-74v258l-300 401h86l251 -335l251 335h86z" />
    <glyph glyph-name="z" unicode="z" horiz-adv-x="664" 
d="M184 61h432v-72h-571l432 588h-409v71h551z" />
    <glyph glyph-name="braceleft" unicode="{" horiz-adv-x="231" 
d="M167 -181q-52 0 -87 34.5t-35 86.5v757q0 50 36 86.5t86 36.5h19v-72h-19q-52 0 -52 -51v-757q0 -51 52 -51h19v-70h-19z" />
    <glyph glyph-name="bar" unicode="|" horiz-adv-x="465" 
d="M360 137q-2 -21 -12 -61q-6 -17 -6 -20t4 -10q-1 -7 -1 -11t6 -14q2 -3 22 -16q16 -11 16 -19q0 -12 -28 -12q-13 0 -30 10.5t-18 10.5q-18 0 -28 8q-1 3 -1 8q0 6 1 12l-6 4v9q-1 8 -1 11q0 9 3.5 26.5t3.5 26.5q0 5 -2 32q-1 17 0 31q-5 0 -5 -33q0 -7 -2 -22t-2 -22
v-27q0 -16 2 -25v-1q0 -4 -2 -12t-2 -12l-3 -1v-4q0 -6 4.5 -16.5t4.5 -14.5q0 -16 -18 -16q-37 0 -37 29q0 4 3.5 10.5t3.5 7.5q-1 1 -3 6l-6 4l-3 4l-2 44v88q0 8 3.5 22.5t3.5 22.5t-10 29q0 30 -3 62q-2 3 -2 6q0 -6 4 10q-2 4 -4 7q5 11 5 13q0 5 -7 22h-3
q-13 -60 -64 -60q-26 0 -43 17q-16 -3 -24 -3q-19 0 -19 24v1q-8 6 -8 17q0 16 17 50q13 24 26 49q-10 -8 -14 -28q0 -2 -3 -2q-4 0 -4 2q0 20 24 38v2l-3 2l3 24q6 0 7 3l2 6h11l10 -3q7 10 11 9l11 24h23l16 -19q0 41 -11 51q21 51 33 61t21 20q0 5 4 16q2 3 24 3
q3 10 13 26l2 10q-6 7 -8 26h-13q-9 -2 -13 -2q-33 0 -33 28q0 12 15 21.5t27 9.5t26 -5q4 13 7 15.5t16 2.5q10 0 46 -4q7 -5 23 -10q3 -8 3 -20l5 -12q9 2 18 2q25 0 25 -19q0 -11 -40 -11q-8 0 -16 -5q-2 -11 -6 -26.5t-13 -26.5q5 -6 37 -23q13 -7 23 -73q11 -23 11 -51
q0 -4 -1 -11t-1 -11q0 -6 5 -18.5t5 -17.5v-6l-4 -5q0 -2 -1 -6v-8q0 -5 1 -10l4 -2q4 -1 4 -6q0 -3 -1 -12l-4 -3h-4v-3q0 -10 5 -17v-4q0 -35 -26 -35q-4 0 -6 3l7 7q-2 16 -2 52l-2 3l-2 1q-3 9 -5 9q-4 0 -6 -44l-3 -63l7 -15q-2 2 -9 5q-5 -20 -5 -57q0 -6 -3 -17
t-3 -17q0 -41 2 -56zM85 362v-27q0 -9 6 -19h4q54 0 93 28q-8 2 -15 9v2l-4 3v-1q-24 6 -39 27q-8 4 -8 11l-3 1l-1 4q-8 2 -8 9q-5 -1 -6 5q-4 -18 -19 -52zM55 327q11 12 26 39q15 49 15 52l-1 21l-27 -48q-16 -28 -16 -52q0 -8 3 -12zM173 297q15 12 26 45
q-33 -32 -97 -41q9 -13 39 -13q12 0 30 9h2zM174 366q18 -11 27 -11v2q0 4 -2 19l-7 7h1l-2 2v-1q-3 3 -7 5q-1 -1 -10 -18v-5zM85 316q-5 12 -5 38q-8 -9 -21 -31q4 -3 26 -7zM97 306q46 6 72 22q-38 -19 -76 -17zM72 303h9q7 2 11 2l-4 6q-10 1 -30 8v-5q0 -11 14 -11z
M201 353h-5q-14 0 -23 10h-3q1 -1 1 -2q8 -11 21 -15zM192 396l-1 -3l1 -4q1 -1 3 -4v2q4 0 4 4v6q-4 -1 -7 -1z" />
    <glyph glyph-name="braceright" unicode="}" horiz-adv-x="230" 
d="M45 -184v71h16q53 0 53 51v759q0 51 -53 51h-16v72h16q50 0 87 -36.5t37 -86.5v-759q0 -51 -36.5 -86.5t-87.5 -35.5h-16z" />
    <glyph glyph-name="asciitilde" unicode="~" horiz-adv-x="396" 
d="M280 577h-83l-41 60l-38 -60h-73l71 104h83l41 -61l38 61h73z" />
    <glyph glyph-name="exclamdown" unicode="&#xa1;" horiz-adv-x="160" 
d="M115 648v-70h-70v70h70zM115 512v-523h-70v523h70z" />
    <glyph glyph-name="cent" unicode="&#xa2;" horiz-adv-x="598" 
d="M287 576h-120q-52 0 -52 -50v-414q0 -53 52 -53h120v517zM357 -11v-51h-70v51h-120q-52 0 -88 36v-1q-34 36 -34 88v414q0 51 34 88v-1q37 35 88 35h120v53h70v-53h196v-72h-196v-517h196v-70h-196z" />
    <glyph glyph-name="sterling" unicode="&#xa3;" horiz-adv-x="621" 
d="M115 280v-168q0 -51 51 -51h410v-72h-410q-52 0 -86.5 35.5t-34.5 87.5v414q0 53 34 87.5t87 34.5h205q53 0 87 -34t34 -88v-115h-70v115q0 51 -51 51h-205q-51 0 -51 -51v-176h183v-70h-183z" />
    <glyph glyph-name="currency" unicode="&#xa4;" horiz-adv-x="365" 
d="M68 318q0 33 17 61l-39 39l40 41l40 -40q25 15 57 15t56 -15l41 40l40 -41l-39 -39q18 -29 18 -61q0 -31 -16 -58l37 -36l-40 -40l-36 36q-28 -17 -61 -17q-35 0 -61 17l-36 -36l-41 40l37 38q-14 25 -14 56zM127 318q0 -23 16 -39t39 -16t39 16t16 39t-16 39t-39 16
t-39 -16t-16 -39z" />
    <glyph glyph-name="yen" unicode="&#xa5;" horiz-adv-x="670" 
d="M269 350l-224 298h86l204 -271l204 271h86l-224 -298h134v-70h-163v-100h163v-69h-163v-122h-74v122h-156v69h156v100h-156v70h127z" />
    <glyph glyph-name="brokenbar" unicode="&#xa6;" horiz-adv-x="162" 
d="M45 451v370h70v-370h-70zM47 -184v370h70v-370h-70z" />
    <glyph glyph-name="section" unicode="&#xa7;" horiz-adv-x="512" 
d="M121 286q-13 0 -13 -12v-55q0 -11 14 -13l271 -14q74 -4 74 -74v-53q0 -32 -21 -54t-53 -22h-348v63h348q11 0 11 13v53q0 10 -13 12l-270 14q-76 4 -76 75v55q0 33 21.5 55t54.5 22h270q13 0 13 13v50q0 11 -13 12l-272 14q-74 4 -74 76v56q0 33 21.5 54.5t54.5 21.5
h329v-63h-329q-13 0 -13 -13v-56q0 -11 14 -12l271 -15q74 -4 74 -75v-51q0 -33 -21.5 -55t-54.5 -22h-270z" />
    <glyph glyph-name="dieresis" unicode="&#xa8;" horiz-adv-x="337" 
d="M45 738v69h70v-69h-70zM222 738v69h70v-69h-70z" />
    <glyph glyph-name="copyright" unicode="&#xa9;" horiz-adv-x="392" 
d="M161 66q-33 0 -33 33v81q0 32 33 32h96v-32h-98v-81q0 -3 2 -3h96v-30h-96zM45 138q0 31 12 58.5t32.5 48t48 32.5t58.5 12t58.5 -12t48 -32.5t32.5 -48t12 -58.5t-12 -58.5t-32.5 -48t-48 -32.5t-58.5 -12t-58.5 12t-48 32.5t-32.5 48t-12 58.5zM85 138q0 -23 8.5 -43.5
t23.5 -35.5t35.5 -23.5t43.5 -8.5t43.5 8.5t35.5 23.5t24 35.5t9 43.5t-9 43.5t-24 35.5t-35.5 24t-43.5 9t-43.5 -9t-35.5 -24t-23.5 -35.5t-8.5 -43.5z" />
    <glyph glyph-name="ordfeminine" unicode="&#xaa;" horiz-adv-x="735" 
d="M45 -11l442 659h203v-368h-279l-1 70l207 1v232h-89l-395 -594h-88zM690 -11h-279v70h279v-70zM690 132h-279v70h279v-70z" />
    <glyph glyph-name="guillemotleft" unicode="&#xab;" horiz-adv-x="485" 
d="M440 -11h-69v658h69v-658zM259 130v-141h-69v123l-145 201l145 215v120h69v-142l-139 -194z" />
    <glyph glyph-name="logicalnot" unicode="&#xac;" horiz-adv-x="764" 
d="M646 280h-601v70h674v-219h-73v149z" />
    <glyph glyph-name="uni00AD" unicode="&#xad;" horiz-adv-x="458" 
d="M45 280v70h368v-70h-368z" />
    <glyph glyph-name="registered" unicode="&#xae;" horiz-adv-x="392" 
d="M230 66v56h-69v-56h-32v146h99q32 0 32 -32v-25q0 -12 -11 -17q11 -4 11 -17v-55h-30zM230 180h-69v-26h69v26zM45 138q0 31 12 58.5t32.5 48t48 32.5t58.5 12t58.5 -12t48 -32.5t32.5 -48t12 -58.5t-12 -58.5t-32.5 -48t-48 -32.5t-58.5 -12t-58.5 12t-48 32.5t-32.5 48
t-12 58.5zM85 138q0 -23 8.5 -43.5t23.5 -35.5t35.5 -23.5t43.5 -8.5t43.5 8.5t35.5 23.5t24 35.5t9 43.5t-9 43.5t-24 35.5t-35.5 24t-43.5 9t-43.5 -9t-35.5 -24t-23.5 -35.5t-8.5 -43.5z" />
    <glyph glyph-name="macron" unicode="&#xaf;" horiz-adv-x="337" 
d="M45 738v69h247v-69h-247z" />
    <glyph glyph-name="degree" unicode="&#xb0;" horiz-adv-x="248" 
d="M124 530q-34 0 -56.5 22t-22.5 56t22.5 56t56.5 22q33 0 56 -22.5t23 -55.5t-23 -55.5t-56 -22.5zM124 572q34 0 34 36q0 35 -34 35q-36 0 -36 -35q0 -36 36 -36z" />
    <glyph glyph-name="plusminus" unicode="&#xb1;" horiz-adv-x="318" 
d="M45 117v70h225v-70h-225zM193 365v-79h-70v79h-78v69h77v80h71v-80h80v-69h-80z" />
    <glyph glyph-name="uni00B2" unicode="&#xb2;" horiz-adv-x="388" 
d="M45 317v118q0 63 68 68l161 13q12 1 12 11v52q0 11 -12 11h-212v58h212q30 0 49.5 -19.5t19.5 -49.5v-52q0 -63 -68 -68l-161 -13q-11 -1 -11 -11v-60h240v-58h-298z" />
    <glyph glyph-name="uni00B3" unicode="&#xb3;" horiz-adv-x="389" 
d="M274 317h-229v58h229q12 0 12 12v54q0 11 -12 11h-212v58h212q12 0 12 11v58q0 11 -12 11h-229v58h229q30 0 50 -19.5t20 -49.5v-58q0 -25 -18 -40q18 -15 18 -40v-54q0 -30 -20 -50t-50 -20z" />
    <glyph glyph-name="acute" unicode="&#xb4;" horiz-adv-x="234" 
d="M45 737l71 104h73l-71 -104h-73z" />
    <glyph glyph-name="paragraph" unicode="&#xb6;" horiz-adv-x="677" 
d="M426 350v226h-260q-53 0 -53 -50v-124q0 -52 53 -52h260zM494 -11h-68v291h-260q-53 0 -87 34.5t-34 87.5v124q0 53 34 87.5t87 34.5h466v-659h-69v587h-69v-587z" />
    <glyph glyph-name="periodcentered" unicode="&#xb7;" horiz-adv-x="160" 
d="M45 281v69h70v-69h-70z" />
    <glyph glyph-name="cedilla" unicode="&#xb8;" horiz-adv-x="234" 
d="M45 -161l71 104h73l-71 -104h-73z" />
    <glyph glyph-name="uni00B9" unicode="&#xb9;" horiz-adv-x="196" 
d="M93 317v273h-48v58h106v-331h-58z" />
    <glyph glyph-name="ordmasculine" unicode="&#xba;" horiz-adv-x="690" 
d="M577 526q0 50 -52 50h-360q-50 0 -50 -50v-135q0 -52 50 -52h360q52 0 52 52v135zM165 268q-53 0 -86.5 35t-33.5 88v135q0 54 34 88t86 34h360q52 0 86 -34t34 -88v-135q0 -53 -33.5 -88t-86.5 -35h-360z" />
    <glyph glyph-name="guillemotright" unicode="&#xbb;" horiz-adv-x="486" 
d="M45 647h70v-658h-70v658zM366 312l-140 193v143h70v-120l145 -215l-145 -202v-122h-70v141z" />
    <glyph glyph-name="onequarter" unicode="&#xbc;" horiz-adv-x="842" 
d="M739 317v135h-172q-29 0 -49 20t-20 49v127h57v-127q0 -11 12 -11h172v138h58v-331h-58zM171 300l255 380h69l-253 -380h-71zM93 317v273h-48v58h106v-331h-58z" />
    <glyph glyph-name="onehalf" unicode="&#xbd;" horiz-adv-x="835" 
d="M171 300l255 380h69l-253 -380h-71zM93 317v273h-48v58h106v-331h-58zM492 317v118q0 63 68 68l161 13q12 1 12 11v52q0 11 -12 11h-212v58h212q30 0 49.5 -19.5t19.5 -49.5v-52q0 -63 -68 -68l-161 -13q-11 -1 -11 -11v-60h240v-58h-298z" />
    <glyph glyph-name="threequarters" unicode="&#xbe;" horiz-adv-x="1005" 
d="M902 317v135h-172q-29 0 -49 20t-20 49v127h57v-127q0 -11 12 -11h172v138h58v-331h-58zM334 300l255 380h69l-253 -380h-71zM274 317h-229v58h229q12 0 12 12v54q0 11 -12 11h-212v58h212q12 0 12 11v58q0 11 -12 11h-229v58h229q30 0 50 -19.5t20 -49.5v-58
q0 -25 -18 -40q18 -15 18 -40v-54q0 -30 -20 -50t-50 -20z" />
    <glyph glyph-name="questiondown" unicode="&#xbf;" horiz-adv-x="685" 
d="M417 647v-70h-70v70h70zM299 352q50 4 50 50v109h72v-109q0 -110 -123 -120l-133 -11q-48 -4 -48 -50v-111q0 -50 49 -50h474v-72h-474q-121 0 -121 122v111q0 112 122 121z" />
    <glyph glyph-name="Agrave" unicode="&#xc0;" horiz-adv-x="713" 
d="M487 648h181v-659h-279v70h206v524h-69l-393 -594h-88zM595 737l-71 104h73l71 -104h-73z" />
    <glyph glyph-name="Aacute" unicode="&#xc1;" horiz-adv-x="713" 
d="M487 648h181v-659h-279v70h206v524h-69l-393 -594h-88zM524 737l71 104h73l-71 -104h-73z" />
    <glyph glyph-name="Acircumflex" unicode="&#xc2;" horiz-adv-x="713" 
d="M487 648h181v-659h-279v70h206v524h-69l-393 -594h-88zM555 803l-49 -66h-63l71 104h83l71 -104h-63z" />
    <glyph glyph-name="Atilde" unicode="&#xc3;" horiz-adv-x="784" 
d="M487 648h181v-659h-279v70h206v524h-69l-393 -594h-88zM668 737h-83l-41 60l-38 -60h-73l71 104h83l41 -61l38 61h73z" />
    <glyph glyph-name="Adieresis" unicode="&#xc4;" horiz-adv-x="713" 
d="M487 648h181v-659h-279v70h206v524h-69l-393 -594h-88zM421 738v69h70v-69h-70zM598 738v69h70v-69h-70z" />
    <glyph glyph-name="Aring" unicode="&#xc5;" horiz-adv-x="713" 
d="M487 648h181v-659h-279v70h206v524h-69l-393 -594h-88zM589 719q-34 0 -56.5 22t-22.5 56t22.5 56t56.5 22q33 0 56 -22.5t23 -55.5t-23 -55.5t-56 -22.5zM589 761q34 0 34 36q0 35 -34 35q-36 0 -36 -35q0 -36 36 -36z" />
    <glyph glyph-name="AE" unicode="&#xc6;" horiz-adv-x="1228" 
d="M487 648h696v-72h-515v-226h478v-70h-478v-221h515v-70h-794v70h206v524h-69l-393 -594h-88z" />
    <glyph glyph-name="Ccedilla" unicode="&#xc7;" horiz-adv-x="661" 
d="M166 -11q-54 0 -87.5 35t-33.5 88v414q0 53 34 87.5t87 34.5h450v-72h-450q-51 0 -51 -50v-414q0 -53 51 -53h450v-70h-450zM262 -161l71 104h73l-71 -104h-73z" />
    <glyph glyph-name="Egrave" unicode="&#xc8;" horiz-adv-x="676" 
d="M337 737l-71 104h73l71 -104h-73zM45 -11v659h586v-72h-515v-226h478v-70h-478v-221h515v-70h-586z" />
    <glyph glyph-name="Eacute" unicode="&#xc9;" horiz-adv-x="676" 
d="M266 737l71 104h73l-71 -104h-73zM45 -11v659h586v-72h-515v-226h478v-70h-478v-221h515v-70h-586z" />
    <glyph glyph-name="Ecircumflex" unicode="&#xca;" horiz-adv-x="676" 
d="M45 -11v659h586v-72h-515v-226h478v-70h-478v-221h515v-70h-586zM338 803l-49 -66h-63l71 104h83l71 -104h-63z" />
    <glyph glyph-name="Edieresis" unicode="&#xcb;" horiz-adv-x="676" 
d="M215 739v69h70v-69h-70zM392 739v69h70v-69h-70zM45 -11v659h586v-72h-515v-226h478v-70h-478v-221h515v-70h-586z" />
    <glyph glyph-name="Igrave" unicode="&#xcc;" horiz-adv-x="234" 
d="M116 737l-71 104h73l71 -104h-73zM82 -11v659h70v-659h-70z" />
    <glyph glyph-name="Iacute" unicode="&#xcd;" horiz-adv-x="234" 
d="M45 737l71 104h73l-71 -104h-73zM82 -11v659h70v-659h-70z" />
    <glyph glyph-name="Icircumflex" unicode="&#xce;" horiz-adv-x="315" 
d="M45 737l71 104h70l-78 -104h-63zM207 737l-79 104h71l71 -104h-63zM123 -11v659h70v-659h-70z" />
    <glyph glyph-name="Idieresis" unicode="&#xcf;" horiz-adv-x="337" 
d="M45 739v69h70v-69h-70zM222 739v69h70v-69h-70zM134 -11v659h70v-659h-70z" />
    <glyph glyph-name="Eth" unicode="&#xd0;" 
d="M116 350h220v-70h-220v-221h395q53 0 53 53v414q0 50 -53 50h-395v-226zM45 648h466q51 0 87.5 -35.5t36.5 -86.5v-414q0 -51 -37 -87t-87 -36h-466v659z" />
    <glyph glyph-name="Ntilde" unicode="&#xd1;" horiz-adv-x="695" 
d="M237 648l273 -594h67v594h73v-659h-195l-272 594h-68v-594h-70v659h192zM430 737h-83l-41 60l-38 -60h-73l71 104h83l41 -61l38 61h73z" />
    <glyph glyph-name="Ograve" unicode="&#xd2;" horiz-adv-x="690" 
d="M344 737l-71 104h73l71 -104h-73zM577 526q0 50 -52 50h-360q-50 0 -50 -50v-414q0 -53 50 -53h360q52 0 52 53v414zM165 -11q-53 0 -86.5 35t-33.5 88v414q0 54 34 88t86 34h360q52 0 86 -34t34 -88v-414q0 -53 -33.5 -88t-86.5 -35h-360z" />
    <glyph glyph-name="Oacute" unicode="&#xd3;" horiz-adv-x="690" 
d="M273 737l71 104h73l-71 -104h-73zM577 526q0 50 -52 50h-360q-50 0 -50 -50v-414q0 -53 50 -53h360q52 0 52 53v414zM165 -11q-53 0 -86.5 35t-33.5 88v414q0 54 34 88t86 34h360q52 0 86 -34t34 -88v-414q0 -53 -33.5 -88t-86.5 -35h-360z" />
    <glyph glyph-name="Ocircumflex" unicode="&#xd4;" horiz-adv-x="690" 
d="M233 737l71 104h70l-78 -104h-63zM395 737l-79 104h71l71 -104h-63zM577 526q0 50 -52 50h-360q-50 0 -50 -50v-414q0 -53 50 -53h360q52 0 52 53v414zM165 -11q-53 0 -86.5 35t-33.5 88v414q0 54 34 88t86 34h360q52 0 86 -34t34 -88v-414q0 -53 -33.5 -88t-86.5 -35
h-360z" />
    <glyph glyph-name="Otilde" unicode="&#xd5;" horiz-adv-x="690" 
d="M427 737h-83l-41 60l-38 -60h-73l71 104h83l41 -61l38 61h73zM577 526q0 50 -52 50h-360q-50 0 -50 -50v-414q0 -53 50 -53h360q52 0 52 53v414zM165 -11q-53 0 -86.5 35t-33.5 88v414q0 54 34 88t86 34h360q52 0 86 -34t34 -88v-414q0 -53 -33.5 -88t-86.5 -35h-360z
" />
    <glyph glyph-name="Odieresis" unicode="&#xd6;" horiz-adv-x="690" 
d="M222 739v69h70v-69h-70zM399 739v69h70v-69h-70zM577 526q0 50 -52 50h-360q-50 0 -50 -50v-414q0 -53 50 -53h360q52 0 52 53v414zM165 -11q-53 0 -86.5 35t-33.5 88v414q0 54 34 88t86 34h360q52 0 86 -34t34 -88v-414q0 -53 -33.5 -88t-86.5 -35h-360z" />
    <glyph glyph-name="multiply" unicode="&#xd7;" horiz-adv-x="167" 
d="M83 353q39 0 39 -40q0 -15 -12 -25.5t-27 -10.5t-26.5 10.5t-11.5 25.5q0 16 11 28t27 12z" />
    <glyph glyph-name="Oslash" unicode="&#xd8;" horiz-adv-x="700" 
d="M537 648l22 35h83l-37 -54q5 -3 16 -15q34 -36 34 -88v-414q0 -53 -33.5 -88t-86.5 -35h-356l-47 -69h-87l59 88q-5 5 -15 16q-34 35 -34 88v414q0 54 34 88t86 34h362zM587 526q0 31 -21 43l-340 -510h309q52 0 52 53v414zM487 576h-312q-50 0 -50 -50v-414
q0 -33 19 -46z" />
    <glyph glyph-name="Ugrave" unicode="&#xd9;" 
d="M339 737l-71 104h73l71 -104h-73zM167 -11q-52 0 -88 36v-1q-34 36 -34 88v536h70v-536q0 -53 52 -53h344q53 0 53 53v536h71v-536q0 -50 -37 -86.5t-87 -36.5h-344z" />
    <glyph glyph-name="Uacute" unicode="&#xda;" 
d="M268 737l71 104h73l-71 -104h-73zM167 -11q-52 0 -88 36v-1q-34 36 -34 88v536h70v-536q0 -53 52 -53h344q53 0 53 53v536h71v-536q0 -50 -37 -86.5t-87 -36.5h-344z" />
    <glyph glyph-name="Ucircumflex" unicode="&#xdb;" 
d="M228 737l71 104h70l-78 -104h-63zM390 737l-79 104h71l71 -104h-63zM167 -11q-52 0 -88 36v-1q-34 36 -34 88v536h70v-536q0 -53 52 -53h344q53 0 53 53v536h71v-536q0 -50 -37 -86.5t-87 -36.5h-344z" />
    <glyph glyph-name="Udieresis" unicode="&#xdc;" 
d="M217 739v69h70v-69h-70zM394 739v69h70v-69h-70zM167 -11q-52 0 -88 36v-1q-34 36 -34 88v536h70v-536q0 -53 52 -53h344q53 0 53 53v536h71v-536q0 -50 -37 -86.5t-87 -36.5h-344z" />
    <glyph glyph-name="Yacute" unicode="&#xdd;" horiz-adv-x="678" 
d="M561 576h-139v72h211v-536q0 -49 -37 -86t-86 -37h-465v70h418l-399 589h88l391 -580q18 14 18 38v470zM267 737l71 104h73l-71 -104h-73z" />
    <glyph glyph-name="Thorn" unicode="&#xde;" horiz-adv-x="677" 
d="M115 350h396q53 0 53 52v124q0 50 -53 50h-396v-226zM115 648h396q53 0 87 -34t34 -88v-124q0 -54 -34 -88t-87 -34h-396v-291h-70v877h70v-218z" />
    <glyph glyph-name="germandbls" unicode="&#xdf;" horiz-adv-x="677" 
d="M45 -11v537q0 54 34 88t88 34h344q53 0 87 -34t34 -88v-124q0 -61 -52 -86q52 -26 52 -88v-116q0 -53 -34 -88t-87 -35h-200v70h200q52 0 52 53v116q0 52 -52 52h-200v70h200q52 0 52 52v124q0 50 -52 50h-344q-51 0 -51 -50v-537h-71z" />
    <glyph glyph-name="agrave" unicode="&#xe0;" horiz-adv-x="713" 
d="M116 737l-71 104h73l71 -104h-73zM668 -11h-88l-393 594h-69v-524h206v-70h-279v659h181z" />
    <glyph glyph-name="aacute" unicode="&#xe1;" horiz-adv-x="713" 
d="M45 737l71 104h73l-71 -104h-73zM668 -11h-88l-393 594h-69v-524h206v-70h-279v659h181z" />
    <glyph glyph-name="acircumflex" unicode="&#xe2;" horiz-adv-x="713" 
d="M157 803l-49 -66h-63l71 104h83l71 -104h-63zM668 -11h-88l-393 594h-69v-524h206v-70h-279v659h181z" />
    <glyph glyph-name="atilde" unicode="&#xe3;" horiz-adv-x="784" 
d="M280 737h-83l-41 60l-38 -60h-73l71 104h83l41 -61l38 61h73zM739 -11h-88l-393 594h-69v-524h206v-70h-279v659h181z" />
    <glyph glyph-name="adieresis" unicode="&#xe4;" horiz-adv-x="713" 
d="M45 738v69h70v-69h-70zM222 738v69h70v-69h-70zM668 -11h-88l-393 594h-69v-524h206v-70h-279v659h181z" />
    <glyph glyph-name="aring" unicode="&#xe5;" horiz-adv-x="713" 
d="M124 719q-34 0 -56.5 22t-22.5 56t22.5 56t56.5 22q33 0 56 -22.5t23 -55.5t-23 -55.5t-56 -22.5zM124 761q34 0 34 36q0 35 -34 35q-36 0 -36 -35q0 -36 36 -36zM668 -11h-88l-393 594h-69v-524h206v-70h-279v659h181z" />
    <glyph glyph-name="ae" unicode="&#xe6;" horiz-adv-x="1228" 
d="M487 648h696v-72h-515v-226h478v-70h-478v-221h515v-70h-794v70h206v524h-69l-393 -594h-88z" />
    <glyph glyph-name="ccedilla" unicode="&#xe7;" horiz-adv-x="661" 
d="M262 -161l71 104h73l-71 -104h-73zM166 -11q-54 0 -87.5 35t-33.5 88v414q0 53 34 87.5t87 34.5h450v-72h-450q-51 0 -51 -50v-414q0 -53 51 -53h450v-70h-450z" />
    <glyph glyph-name="egrave" unicode="&#xe8;" horiz-adv-x="676" 
d="M337 737l-71 104h73l71 -104h-73zM45 -11v659h586v-72h-515v-226h478v-70h-478v-221h515v-70h-586z" />
    <glyph glyph-name="eacute" unicode="&#xe9;" horiz-adv-x="676" 
d="M266 737l71 104h73l-71 -104h-73zM45 -11v659h586v-72h-515v-226h478v-70h-478v-221h515v-70h-586z" />
    <glyph glyph-name="ecircumflex" unicode="&#xea;" horiz-adv-x="676" 
d="M45 -11v659h586v-72h-515v-226h478v-70h-478v-221h515v-70h-586zM338 803l-49 -66h-63l71 104h83l71 -104h-63z" />
    <glyph glyph-name="edieresis" unicode="&#xeb;" horiz-adv-x="676" 
d="M215 739v69h70v-69h-70zM392 739v69h70v-69h-70zM45 -11v659h586v-72h-515v-226h478v-70h-478v-221h515v-70h-586z" />
    <glyph glyph-name="igrave" unicode="&#xec;" horiz-adv-x="234" 
d="M116 737l-71 104h73l71 -104h-73zM82 -11v659h70v-659h-70z" />
    <glyph glyph-name="iacute" unicode="&#xed;" horiz-adv-x="234" 
d="M45 737l71 104h73l-71 -104h-73zM82 -11v659h70v-659h-70z" />
    <glyph glyph-name="icircumflex" unicode="&#xee;" horiz-adv-x="315" 
d="M45 737l71 104h70l-78 -104h-63zM207 737l-79 104h71l71 -104h-63zM123 -11v659h70v-659h-70z" />
    <glyph glyph-name="idieresis" unicode="&#xef;" horiz-adv-x="337" 
d="M45 739v69h70v-69h-70zM222 739v69h70v-69h-70zM134 -11v659h70v-659h-70z" />
    <glyph glyph-name="eth" unicode="&#xf0;" 
d="M116 350h220v-70h-220v-221h395q53 0 53 53v414q0 50 -53 50h-395v-226zM45 648h466q51 0 87.5 -35.5t36.5 -86.5v-414q0 -51 -37 -87t-87 -36h-466v659z" />
    <glyph glyph-name="ntilde" unicode="&#xf1;" horiz-adv-x="695" 
d="M237 648l273 -594h67v594h73v-659h-195l-272 594h-68v-594h-70v659h192zM430 737h-83l-41 60l-38 -60h-73l71 104h83l41 -61l38 61h73z" />
    <glyph glyph-name="ograve" unicode="&#xf2;" horiz-adv-x="690" 
d="M344 737l-71 104h73l71 -104h-73zM577 526q0 50 -52 50h-360q-50 0 -50 -50v-414q0 -53 50 -53h360q52 0 52 53v414zM165 -11q-53 0 -86.5 35t-33.5 88v414q0 54 34 88t86 34h360q52 0 86 -34t34 -88v-414q0 -53 -33.5 -88t-86.5 -35h-360z" />
    <glyph glyph-name="oacute" unicode="&#xf3;" horiz-adv-x="690" 
d="M273 737l71 104h73l-71 -104h-73zM577 526q0 50 -52 50h-360q-50 0 -50 -50v-414q0 -53 50 -53h360q52 0 52 53v414zM165 -11q-53 0 -86.5 35t-33.5 88v414q0 54 34 88t86 34h360q52 0 86 -34t34 -88v-414q0 -53 -33.5 -88t-86.5 -35h-360z" />
    <glyph glyph-name="ocircumflex" unicode="&#xf4;" horiz-adv-x="690" 
d="M233 737l71 104h70l-78 -104h-63zM395 737l-79 104h71l71 -104h-63zM577 526q0 50 -52 50h-360q-50 0 -50 -50v-414q0 -53 50 -53h360q52 0 52 53v414zM165 -11q-53 0 -86.5 35t-33.5 88v414q0 54 34 88t86 34h360q52 0 86 -34t34 -88v-414q0 -53 -33.5 -88t-86.5 -35
h-360z" />
    <glyph glyph-name="otilde" unicode="&#xf5;" horiz-adv-x="690" 
d="M427 737h-83l-41 60l-38 -60h-73l71 104h83l41 -61l38 61h73zM577 526q0 50 -52 50h-360q-50 0 -50 -50v-414q0 -53 50 -53h360q52 0 52 53v414zM165 -11q-53 0 -86.5 35t-33.5 88v414q0 54 34 88t86 34h360q52 0 86 -34t34 -88v-414q0 -53 -33.5 -88t-86.5 -35h-360z
" />
    <glyph glyph-name="odieresis" unicode="&#xf6;" horiz-adv-x="690" 
d="M222 739v69h70v-69h-70zM399 739v69h70v-69h-70zM577 526q0 50 -52 50h-360q-50 0 -50 -50v-414q0 -53 50 -53h360q52 0 52 53v414zM165 -11q-53 0 -86.5 35t-33.5 88v414q0 54 34 88t86 34h360q52 0 86 -34t34 -88v-414q0 -53 -33.5 -88t-86.5 -35h-360z" />
    <glyph glyph-name="divide" unicode="&#xf7;" horiz-adv-x="483" 
d="M202 474v70h72v-70h-72zM202 93v72h72v-72h-72zM45 280v70h393v-70h-393z" />
    <glyph glyph-name="oslash" unicode="&#xf8;" horiz-adv-x="700" 
d="M537 648l22 35h83l-37 -54q5 -3 16 -15q34 -36 34 -88v-414q0 -53 -33.5 -88t-86.5 -35h-356l-47 -69h-87l59 88q-5 5 -15 16q-34 35 -34 88v414q0 54 34 88t86 34h362zM587 526q0 31 -21 43l-340 -510h309q52 0 52 53v414zM487 576h-312q-50 0 -50 -50v-414
q0 -33 19 -46z" />
    <glyph glyph-name="ugrave" unicode="&#xf9;" 
d="M339 737l-71 104h73l71 -104h-73zM167 -11q-52 0 -88 36v-1q-34 36 -34 88v536h70v-536q0 -53 52 -53h344q53 0 53 53v536h71v-536q0 -50 -37 -86.5t-87 -36.5h-344z" />
    <glyph glyph-name="uacute" unicode="&#xfa;" 
d="M268 737l71 104h73l-71 -104h-73zM167 -11q-52 0 -88 36v-1q-34 36 -34 88v536h70v-536q0 -53 52 -53h344q53 0 53 53v536h71v-536q0 -50 -37 -86.5t-87 -36.5h-344z" />
    <glyph glyph-name="ucircumflex" unicode="&#xfb;" 
d="M228 737l71 104h70l-78 -104h-63zM390 737l-79 104h71l71 -104h-63zM167 -11q-52 0 -88 36v-1q-34 36 -34 88v536h70v-536q0 -53 52 -53h344q53 0 53 53v536h71v-536q0 -50 -37 -86.5t-87 -36.5h-344z" />
    <glyph glyph-name="udieresis" unicode="&#xfc;" 
d="M217 739v69h70v-69h-70zM394 739v69h70v-69h-70zM167 -11q-52 0 -88 36v-1q-34 36 -34 88v536h70v-536q0 -53 52 -53h344q53 0 53 53v536h71v-536q0 -50 -37 -86.5t-87 -36.5h-344z" />
    <glyph glyph-name="yacute" unicode="&#xfd;" horiz-adv-x="764" 
d="M310 737l71 104h73l-71 -104h-73zM419 247v-258h-74v258l-300 401h86l251 -337l251 337h86z" />
    <glyph glyph-name="thorn" unicode="&#xfe;" horiz-adv-x="677" 
d="M115 350h396q53 0 53 52v124q0 50 -53 50h-396v-226zM115 648h396q53 0 87 -34t34 -88v-124q0 -54 -34 -88t-87 -34h-396v-291h-70v877h70v-218z" />
    <glyph glyph-name="ydieresis" unicode="&#xff;" horiz-adv-x="764" 
d="M260 739v69h70v-69h-70zM437 739v69h70v-69h-70zM419 247v-258h-74v258l-300 401h86l251 -337l251 337h86z" />
    <glyph glyph-name="OE" unicode="&#x152;" horiz-adv-x="1149" 
d="M518 576h-352q-51 0 -51 -50v-414q0 -53 51 -53h352v517zM166 -11q-52 0 -86.5 35.5t-34.5 87.5v414q0 53 34 87.5t87 34.5h938v-72h-515v-226h478v-70h-478v-221h515v-70h-938z" />
    <glyph glyph-name="oe" unicode="&#x153;" horiz-adv-x="1149" 
d="M518 576h-352q-51 0 -51 -50v-414q0 -53 51 -53h352v517zM166 -11q-52 0 -86.5 35.5t-34.5 87.5v414q0 53 34 87.5t87 34.5h938v-72h-515v-226h478v-70h-478v-221h515v-70h-938z" />
    <glyph glyph-name="Scaron" unicode="&#x160;" horiz-adv-x="705" 
d="M45 -11v70h494q52 0 52 53v103q0 47 -51 51l-372 28q-123 9 -123 121v111q0 51 35 88v-1q35 35 87 35h460v-72h-460q-52 0 -52 -50v-111q0 -47 51 -51l373 -28q121 -9 121 -121v-103q0 -53 -34 -88t-87 -35h-494zM312 737l-71 104h63l49 -66l50 66h63l-71 -104h-83z" />
    <glyph glyph-name="scaron" unicode="&#x161;" horiz-adv-x="705" 
d="M45 -11v70h494q52 0 52 53v103q0 47 -51 51l-372 28q-123 9 -123 121v111q0 51 35 88v-1q35 35 87 35h460v-72h-460q-52 0 -52 -50v-111q0 -47 51 -51l373 -28q121 -9 121 -121v-103q0 -53 -34 -88t-87 -35h-494zM312 737l-71 104h63l49 -66l50 66h63l-71 -104h-83z" />
    <glyph glyph-name="Ydieresis" unicode="&#x178;" horiz-adv-x="678" 
d="M216 798v69h69v-69h-69zM393 798v69h70v-69h-70zM561 42v534h-139v72h211v-536q0 -49 -37 -86t-86 -37h-465v70h418l-394 589h83z" />
    <glyph glyph-name="Zcaron" unicode="&#x17d;" horiz-adv-x="672" 
d="M192 61h432v-72h-579l432 588h-409v71h559zM295 737l-71 104h63l49 -66l50 66h63l-71 -104h-83z" />
    <glyph glyph-name="zcaron" unicode="&#x17e;" horiz-adv-x="672" 
d="M192 61h432v-72h-579l432 588h-409v71h559zM295 737l-71 104h63l49 -66l50 66h63l-71 -104h-83z" />
    <glyph glyph-name="florin" unicode="&#x192;" horiz-adv-x="673" 
d="M251 -32q0 -53 -34 -88.5t-87 -35.5h-85v71h85q51 0 51 53v558q0 54 34 88t87 34h205q53 0 87 -34.5t34 -87.5v-115h-69v115q0 51 -52 51h-205q-51 0 -51 -51v-176h183v-70h-183v-312z" />
    <glyph glyph-name="circumflex" unicode="&#x2c6;" horiz-adv-x="315" 
d="M45 737l71 104h70l-78 -104h-63zM207 737l-79 104h71l71 -104h-63z" />
    <glyph glyph-name="tilde" unicode="&#x2dc;" horiz-adv-x="396" 
d="M280 737h-83l-41 60l-38 -60h-73l71 104h83l41 -61l38 61h73z" />
    <glyph glyph-name="endash" unicode="&#x2013;" horiz-adv-x="624" 
d="M45 280v70h534v-70h-534z" />
    <glyph glyph-name="emdash" unicode="&#x2014;" horiz-adv-x="764" 
d="M45 280v70h674v-70h-674z" />
    <glyph glyph-name="quoteleft" unicode="&#x2018;" horiz-adv-x="234" 
d="M45 577l71 104h73l-71 -104h-73z" />
    <glyph glyph-name="quoteright" unicode="&#x2019;" horiz-adv-x="234" 
d="M45 577l71 104h73l-71 -104h-73z" />
    <glyph glyph-name="quotesinglbase" unicode="&#x201a;" horiz-adv-x="234" 
d="M45 -42l71 104h73l-71 -104h-73z" />
    <glyph glyph-name="quotedblleft" unicode="&#x201c;" horiz-adv-x="357" 
d="M45 577l71 104h73l-71 -104h-73zM168 577l71 104h73l-71 -104h-73z" />
    <glyph glyph-name="quotedblright" unicode="&#x201d;" horiz-adv-x="357" 
d="M45 577l71 104h73l-71 -104h-73zM168 577l71 104h73l-71 -104h-73z" />
    <glyph glyph-name="quotedblbase" unicode="&#x201e;" horiz-adv-x="357" 
d="M45 -42l71 104h73l-71 -104h-73zM168 -42l71 104h73l-71 -104h-73z" />
    <glyph glyph-name="dagger" unicode="&#x2020;" horiz-adv-x="393" 
d="M233 456v-466h-70v466h-118v70h118v122h70v-122h115v-70h-115z" />
    <glyph glyph-name="daggerdbl" unicode="&#x2021;" horiz-adv-x="393" 
d="M163 286v170h-118v70h118v122h70v-122h115v-70h-115v-170h115v-68h-115v-228h-70v228h-118v68h118z" />
    <glyph glyph-name="bullet" unicode="&#x2022;" horiz-adv-x="280" 
d="M45 316q0 39 28.5 66.5t66.5 27.5q39 0 67 -28t28 -66q0 -39 -28 -67t-67 -28t-67 28t-28 67z" />
    <glyph glyph-name="ellipsis" unicode="&#x2026;" horiz-adv-x="493" 
d="M212 280v70h70v-70h-70zM45 280v70h70v-70h-70zM378 280v70h70v-70h-70z" />
    <glyph glyph-name="perthousand" unicode="&#x2030;" horiz-adv-x="1077" 
d="M116 -8l442 658h84l-439 -658h-87zM287 588q0 25 -26 25h-155q-26 0 -26 -25v-207q0 -27 26 -27h155q26 0 26 27v207zM106 319q-26 0 -43.5 18t-17.5 44v207q0 26 17 43.5t44 17.5h155q26 0 43.5 -18t17.5 -43v-207q0 -26 -18 -44t-43 -18h-155zM684 263q0 25 -26 25
h-155q-26 0 -26 -25v-207q0 -27 26 -27h155q26 0 26 27v207zM503 -6q-26 0 -43.5 18t-17.5 44v207q0 26 17 43.5t44 17.5h155q26 0 43.5 -18t17.5 -43v-207q0 -26 -18 -44t-43 -18h-155zM997 263q0 25 -26 25h-155q-26 0 -26 -25v-207q0 -27 26 -27h155q26 0 26 27v207z
M816 -6q-26 0 -43.5 18t-17.5 44v207q0 26 17 43.5t44 17.5h155q26 0 43.5 -18t17.5 -43v-207q0 -26 -18 -44t-43 -18h-155z" />
    <glyph glyph-name="guilsinglleft" unicode="&#x2039;" horiz-adv-x="305" 
d="M260 130v-141h-69v123l-146 201l146 215v120h69v-142l-139 -194z" />
    <glyph glyph-name="guilsinglright" unicode="&#x203a;" horiz-adv-x="306" 
d="M185 312l-140 193v143h70v-120l146 -215l-146 -202v-122h-70v141z" />
    <glyph glyph-name="Euro" unicode="&#x20ac;" horiz-adv-x="796" 
d="M165 456v70q0 51 35 88v-1q37 35 87 35h464v-72h-464q-52 0 -52 -50v-70h206v-74h-206v-134h206v-71h-206v-65q0 -53 52 -53h464v-70h-464q-51 0 -87 36v-1q-35 35 -35 88v65h-120v71h120v134h-120v74h120z" />
    <glyph glyph-name="trademark" unicode="&#x2122;" horiz-adv-x="735" 
d="M424 648h91v-132l85 132h90v-330h-36v297h-35l-104 -158v-139h-37v92l-55 -92h-44l99 148v149h-34l-197 -297h-74v294h-128v36h293v-36h-128v-284z" />
    </font>
</defs>
</svg>
